PathFileType	4	(X/Y/Z)	C:\Users\ebm\Documents\Erivelton\Erivelton2\wc3.trc
DataRate	CameraRate	NumFrames	NumMarkers	Units	OrigDataRate	OrigDataStartFrame	OrigNumFrames
150.00	150.00	      11	28	mm	150.00	934	      1245
Frame#	Time	IJ			PX			C7			T8			RAC			RAS			RPS			RAI			RPI			RLE			RME			RRS			RUS			R3M			R5M			LAC			LAS			LPS			LAI			LPI			LLE			LME			LRS			LUS			L3M			L5M			RW			LW			V_mid_elbow_r			V_mid_elbow_l			V_mid_wrist_r			V_mid_wrist_l			V_mid_trunk_low			V_mid_trunk_upp			
		X1	Y1	Z1	X2	Y2	Z2	X3	Y3	Z3	X4	Y4	Z4	X5	Y5	Z5	X6	Y6	Z6	X7	Y7	Z7	X8	Y8	Z8	X9	Y9	Z9	X10	Y10	Z10	X11	Y11	Z11	X12	Y12	Z12	X13	Y13	Z13	X14	Y14	Z14	X15	Y15	Z15	X16	Y16	Z16	X17	Y17	Z17	X18	Y18	Z18	X19	Y19	Z19	X20	Y20	Z20	X21	Y21	Z21	X22	Y22	Z22	X23	Y23	Z23	X24	Y24	Z24	X25	Y25	Z25	X26	Y26	Z26	X27	Y27	Z27	X28	Y28	Z28	

934	6.220	2870.35132	1012.10699	30.88988	2850.32764	844.51538	43.57317	2753.93579	1128.36499	30.47535	2658.57227	996.95343	38.01683	2812.86035	1063.02051	237.45529	2743.45239	896.92993	316.49274	2703.86768	927.76123	319.07956	2706.38770	834.62469	346.16849	2661.70825	865.17834	348.57550	2639.84106	800.47235	369.46826	2611.51855	782.34851	294.08746	2790.19702	593.22412	365.41425	2825.18140	519.93329	372.82489	2831.86816	611.35889	323.74945	2862.84863	538.34503	370.11969	2787.37061	1065.51697	-153.75539	2709.05273	943.13458	-247.31664	2669.23511	953.77893	-223.48799	2680.51099	880.48444	-287.56866	2632.16333	889.69476	-263.35510	2638.67456	803.55017	-321.04395	2595.22461	786.11139	-256.91797	2785.96167	583.59406	-298.33655	2821.25684	528.59729	-301.03030	2819.70972	619.15210	-258.07401	2861.89087	546.35229	-297.83093	2731.79956	300.78860	346.43930	2763.08643	298.05939	-282.79053	
935	6.227	2877.87891	1012.50214	31.28030	2858.14868	844.99243	43.93909	2761.43213	1128.57825	30.97705	2666.29077	997.13007	38.31818	2821.18921	1062.78503	237.96947	2754.93286	895.25024	317.15289	2714.52026	925.47009	320.03085	2718.69312	832.27515	346.70776	2673.60596	862.06561	349.46674	2653.01123	796.89661	370.32928	2624.20190	778.33624	295.45331	2805.32715	591.62915	366.26987	2838.53809	517.96069	373.74533	2846.81836	609.24829	324.60461	2876.50684	535.30322	370.99591	2795.40259	1065.85364	-153.81615	2721.88062	941.34546	-246.79401	2679.57764	952.15076	-225.70927	2693.13672	877.68854	-288.01767	2643.97339	887.14612	-265.39557	2651.76831	800.90845	-321.52155	2607.63770	783.59167	-258.07693	2800.54590	582.76416	-297.52002	2834.88257	527.81256	-300.52844	2833.82422	617.24133	-256.29227	2876.46729	544.42047	-297.17816	2738.56982	300.93866	346.82855	2770.41724	298.20401	-282.52194	
936	6.233	2885.68237	1013.05780	31.53910	2865.81641	845.45367	44.04705	2768.90991	1128.82080	31.38803	2673.89771	997.33325	38.54005	2829.80347	1062.19458	237.97935	2765.80762	893.53394	317.64706	2725.06787	923.02759	320.83347	2731.05273	829.84204	347.06567	2685.52051	858.90259	350.41837	2666.17822	793.35590	371.12155	2636.70679	774.55402	296.52713	2820.42139	589.80957	367.09213	2852.17529	515.63031	374.84775	2861.27148	606.57214	325.11728	2890.16504	532.13477	371.69839	2803.34668	1065.83264	-153.56721	2733.00024	939.44012	-247.45021	2689.93262	950.33990	-227.99211	2705.82007	874.78693	-288.19800	2656.02563	884.34381	-267.19867	2665.11450	797.99017	-321.75302	2620.33325	780.77759	-258.90811	2815.03320	581.68988	-296.29578	2848.57959	526.75555	-299.93027	2848.63696	615.87152	-255.18259	2890.08032	541.29114	-295.83450	2746.85083	301.10043	347.13910	2777.97192	298.32925	-282.02005	
937	6.240	2893.22827	1013.54443	31.91743	2873.65381	846.00549	44.10931	2776.36157	1129.11206	31.83855	2681.62671	997.50751	38.77482	2837.87891	1062.11963	238.78000	2776.90015	891.81030	317.91672	2735.67651	920.50562	321.67459	2743.48071	827.31415	347.43436	2697.52710	855.45624	351.20898	2679.60010	789.75391	371.76184	2649.89551	770.54840	297.54782	2835.38428	587.60547	367.79965	2866.01245	513.14825	375.85471	2876.68311	604.28131	325.93924	2904.37402	528.82007	372.15244	2811.49658	1065.50415	-153.21112	2744.23486	937.53345	-248.16785	2700.54370	948.37775	-229.99867	2718.60449	871.79437	-288.31628	2668.20435	881.38416	-268.78540	2678.68115	795.05194	-321.86044	2633.29980	777.57770	-259.42889	2829.66138	580.65747	-295.58249	2862.10596	525.40540	-299.21094	2863.22559	614.32227	-253.87672	2904.07397	538.63788	-294.79855	2754.43359	301.21661	347.55505	2785.22607	298.41003	-281.68362	
938	6.247	2900.86206	1014.09442	32.21104	2881.19214	846.29315	44.45910	2783.78076	1129.40955	32.24560	2689.16431	997.71606	39.00010	2846.25317	1061.47803	238.83858	2788.01929	890.00604	318.05383	2746.36841	917.84875	322.36353	2756.12305	824.72412	347.60056	2709.79150	851.95947	351.86905	2693.17334	785.98224	372.18884	2663.17871	766.49591	298.43573	2850.22974	585.12726	368.40775	2879.62427	510.39087	376.98074	2891.18066	601.02405	326.03381	2918.06909	525.57672	373.49280	2819.55249	1065.45178	-153.03262	2755.55005	935.44806	-248.50618	2711.29468	946.30670	-231.75713	2731.40356	868.84644	-288.18784	2680.45508	878.34033	-270.04733	2692.36597	792.05646	-321.87003	2646.38037	774.05981	-259.70654	2844.38062	579.26703	-294.74432	2875.67822	523.77954	-298.50107	2878.26807	612.61499	-252.82906	2917.87915	535.99323	-293.87140	2762.15747	301.25214	347.94742	2792.59961	298.40860	-281.64627	
939	6.253	2908.50732	1014.69348	32.52773	2889.02539	846.79364	44.79021	2791.33374	1129.60986	32.54327	2696.87476	997.85614	39.25555	2854.10425	1061.35828	239.60992	2799.28687	888.18878	318.17590	2757.16113	915.12268	322.95544	2768.95117	822.08319	347.69034	2722.06323	848.47888	352.49466	2706.93457	782.16174	372.43152	2676.74341	762.46887	299.24075	2865.04688	582.42633	368.93726	2893.16968	507.45184	377.67657	2906.25024	597.97406	326.58240	2931.65503	521.75793	374.41681	2827.78735	1065.37451	-152.85002	2766.81836	933.48895	-248.93369	2722.12012	944.19226	-233.31953	2744.13501	865.94189	-287.84454	2692.72949	875.28595	-271.00290	2706.33862	788.77393	-321.69592	2659.77368	770.47937	-259.82758	2859.23950	577.70868	-294.09381	2889.39185	521.89673	-297.79199	2893.31787	610.67737	-252.06546	2931.92285	532.84552	-292.95184	2769.94092	301.22842	348.35074	2800.42285	298.53296	-280.91171	
940	6.260	2917.21802	1015.44354	32.67493	2896.91846	847.24670	44.59656	2798.68042	1129.89526	32.86859	2704.52051	997.96906	39.45825	2862.20728	1060.67566	239.62845	2810.63525	886.29291	318.25250	2768.06250	912.29944	323.38278	2781.95825	819.45624	347.55338	2734.56616	844.75781	352.87048	2720.82764	778.19727	372.64319	2691.26440	757.77563	299.24539	2879.92163	579.56500	369.48318	2906.65454	504.20691	378.14722	2921.37866	594.59851	327.18790	2946.96338	516.39368	373.97159	2835.83423	1065.26941	-152.77737	2778.89258	930.76105	-246.72934	2732.84961	942.30646	-236.57765	2756.89233	862.86597	-287.10376	2704.93164	872.15851	-271.70645	2720.25586	785.62463	-321.14859	2673.50415	766.65930	-259.68292	2873.78955	575.93585	-293.43506	2903.02075	519.78076	-297.17877	2908.13501	608.38727	-251.41304	2945.68213	529.60211	-292.27689	2777.81055	301.22937	348.73184	2807.90771	298.60092	-280.58331	
941	6.267	2924.75293	1016.03119	32.90518	2904.87134	847.86456	45.01475	2806.30151	1130.21289	33.20791	2712.05371	998.12659	39.69290	2869.87646	1060.56641	240.28769	2822.14624	884.32172	317.91336	2778.96582	909.48804	323.75815	2795.09351	816.80066	347.20715	2747.23877	841.09033	353.17633	2734.92114	774.24603	372.57379	2705.11450	753.82477	299.60443	2894.61694	576.40955	370.08255	2920.15625	500.73468	378.72906	2936.48779	591.02722	327.83081	2960.69922	511.94717	374.54431	2843.89575	1065.12305	-152.68921	2789.96143	928.64209	-246.93884	2743.84497	939.98798	-237.35123	2769.54102	860.10248	-286.53284	2717.12817	868.85541	-271.88229	2734.26563	782.32532	-320.52420	2686.72144	763.50702	-259.64417	2888.53101	573.89282	-292.90070	2916.74146	517.34485	-296.42493	2923.38110	606.00879	-250.93604	2959.58740	526.09161	-291.54214	2785.97534	301.10211	349.14078	2815.60352	298.61032	-280.18170	
942	6.273	2932.46216	1016.56519	33.23449	2912.64575	848.11481	45.33313	2813.48853	1130.28003	33.33698	2719.69409	998.19336	39.81742	2877.66260	1059.85535	240.33221	2833.63721	882.34796	317.73862	2790.03809	906.57208	323.98642	2808.38843	814.03943	346.67551	2760.09497	837.30762	353.21735	2749.22681	770.18561	372.38541	2719.40259	749.59393	299.58215	2909.50024	573.06714	370.64157	2933.68188	497.24274	379.46301	2951.70068	587.35034	328.70233	2974.48975	507.34958	375.20364	2851.90332	1064.90112	-152.72621	2801.01221	926.44336	-246.92717	2754.60767	937.43628	-237.81067	2782.06909	857.10242	-285.53387	2729.34009	865.48920	-271.97479	2748.28271	779.06238	-319.57108	2700.36279	760.13660	-259.42529	2903.92529	571.83643	-291.93860	2930.35962	514.68811	-295.73038	2939.91992	603.89581	-250.59402	2973.68164	522.40869	-290.91577	2793.75659	301.12805	349.50995	2823.32007	298.67834	-279.92258	
943	6.280	2939.86304	1017.04364	33.55261	2920.72168	848.59454	45.46817	2820.97070	1130.54675	33.64650	2727.24683	998.23578	40.02160	2884.94629	1059.58630	240.92101	2845.20044	880.51978	317.27850	2801.09009	903.57654	324.03973	2821.84302	811.42090	346.07217	2773.02393	833.41840	353.09604	2763.74561	766.14349	371.88739	2733.88843	745.32306	299.40662	2924.48438	569.60980	371.36624	2947.35254	493.70032	380.28827	2967.19409	583.55792	329.49133	2988.42139	502.64832	375.66516	2860.06274	1064.62659	-152.65768	2811.86157	924.25372	-246.68678	2765.36621	934.75354	-238.08374	2794.52832	854.46838	-284.95059	2741.55786	862.05902	-271.85818	2762.16626	775.75391	-318.69223	2714.22900	756.57434	-258.98486	2918.57544	569.29211	-291.39175	2943.75415	511.88626	-295.11346	2955.33911	601.15430	-250.19443	2987.44678	518.48285	-290.21832	2801.74512	301.11151	349.86841	2830.95972	298.62750	-279.75522	
944	6.287	2947.42578	1017.58594	33.79534	2928.60547	848.81744	45.64468	2827.95337	1130.55603	33.77006	2734.77100	998.19232	40.16506	2892.53662	1058.90552	240.95540	2856.74194	878.61035	316.80899	2812.21069	900.57678	324.03778	2835.29639	808.79236	345.34027	2786.01318	829.53705	352.88034	2778.37915	762.07446	371.34055	2748.29346	741.34393	299.50317	2939.77222	566.06873	372.02170	2961.03442	490.01889	381.13889	2982.19653	578.85742	329.69409	3002.27515	497.66003	376.31268	2868.10083	1064.29004	-152.64565	2822.74072	921.95087	-246.35001	2776.12329	931.98810	-238.13615	2806.98193	851.46588	-283.80264	2753.70386	858.51489	-271.48615	2776.08521	772.49457	-317.46988	2728.21509	752.94263	-258.28754	2932.95361	566.63171	-290.87085	2957.16113	508.90350	-294.50369	2970.43848	598.02502	-249.98952	3000.99756	514.37982	-289.67838	2810.01245	300.98026	350.28555	2838.89990	298.66733	-279.19073	
